<svg version="1.1" xmlns="http://www.w3.org/2000/svg" viewBox="0 0 313.69047182512713 329.8790757103643" width="313.69047182512713" height="329.8790757103643">
  <!-- svg-source:excalidraw -->
  
  <defs>
    <style class="style-fonts">
      @font-face {
        font-family: "Virgil";
        src: url("https://excalidraw.com/Virgil.woff2");
      }
      @font-face {
        font-family: "Cascadia";
        src: url("https://excalidraw.com/Cascadia.woff2");
      }
    </style>
    
  </defs>
  <rect x="0" y="0" width="313.69047182512713" height="329.8790757103643" fill="#ffffff"></rect><g stroke-linecap="round" transform="translate(9.999999999999773 9.99999999999909) rotate(0 146.84523591256368 130.20060144859008)"><path d="M43.2 37.55 C43.2 37.55, 43.2 37.55, 43.2 37.55 M43.2 37.55 C43.2 37.55, 43.2 37.55, 43.2 37.55 M16.33 73.07 C30.2 58.77, 44.75 41.13, 56.09 30.38 M17.06 71.86 C26.15 63.41, 33.47 54.61, 53.98 31.33 M14.37 82.17 C35.03 59.67, 55.61 39.3, 65.9 25.18 M15.42 82.12 C27.93 69.07, 40.4 55.06, 66.53 23.82 M12.58 92.55 C28.06 69.8, 50.85 45.98, 75.53 16.06 M10.71 92.54 C34.15 65.51, 57.31 39.61, 77.08 17.51 M6.31 103.86 C31.81 77.73, 54.2 50.15, 84.05 13.05 M7.64 102.57 C36.76 70.49, 63.9 39.12, 83.91 13.18 M3.51 113.72 C32.18 78.53, 66.39 42.08, 93.54 13.01 M3.11 113.66 C32.52 81.33, 60.78 47.56, 92.5 12.43 M4.62 120.76 C29.55 90.85, 51.13 65.04, 99.47 11.84 M3.48 119.6 C35.98 82.22, 70.24 44.13, 98.15 10.19 M5.13 126.52 C32.25 93.1, 61.19 60.97, 107.44 8.43 M3.29 124.59 C26.02 100.68, 46.57 76.39, 106.02 7.85 M4.07 129.21 C38.72 92.44, 76.46 52.47, 111.32 7.34 M5.11 130.21 C30.23 101.81, 54.2 71.89, 113.53 6.19 M3.56 137.98 C25.94 110.28, 52.36 83.22, 121.44 4.01 M5.38 135.96 C34.65 103.19, 64.45 69.03, 119.87 3.74 M3.02 143.84 C41.57 103.22, 77.24 60.15, 125.32 0.39 M3.85 143.34 C36.52 106.4, 67.83 72, 126.97 2.72 M6.55 148.81 C37.65 113.47, 65.49 77.27, 134.59 -0.3 M5.29 149.27 C36.77 111.83, 67.71 76.88, 133.71 0.96 M5.12 153.61 C48.91 104.71, 94.25 53.53, 137.68 2.03 M4.93 154.8 C56.33 93.76, 107.41 32.89, 137.02 1.75 M7.37 158.36 C44.02 117.3, 79.51 70.9, 144.46 1.06 M5.7 160.52 C46.03 113.02, 87.26 66.16, 143.45 1.59 M8.8 164.24 C50 115.24, 93.58 62.35, 147.59 3.87 M7.95 163.5 C47.81 118.6, 87.27 73.54, 147.07 2.97 M10.42 167.27 C41.48 133.45, 71.44 96.26, 151.08 3.72 M9.78 169.06 C47.57 124.9, 84.89 81.57, 151.41 2.88 M11.07 173.4 C49.42 128.22, 86.76 83.75, 155.64 5.61 M11.3 171.93 C52.13 124.51, 93.09 78, 156.94 4.26 M11.03 175.09 C60.29 119.24, 109.24 64.91, 160.86 4.68 M13.18 176.46 C65.88 115.12, 118.76 53.6, 162.61 4.26 M14.27 180.79 C60.95 125.08, 107.91 72.89, 168.41 4.26 M14.93 180.58 C73.71 109.3, 134.2 38.47, 167.64 5.49 M15.64 184.24 C57.93 134.68, 100.67 87.37, 173.68 4.58 M15.93 184.69 C60.93 131.4, 105.96 80.63, 172.67 5.93 M16.83 190.17 C75.89 122.81, 136.18 54.61, 176.67 6.44 M17.17 189.52 C78.94 118.11, 139.92 49.42, 177.27 6.12 M19.53 195.01 C59.56 144.21, 103.18 95.09, 180.82 6.37 M18.1 193.79 C77.19 127.18, 135.54 59.23, 181.72 5.26 M21.19 198.31 C60.36 149.94, 100.3 107.13, 186.31 7.53 M21.69 196.69 C87.37 122.06, 152.61 48.02, 187.18 7.24 M22.98 199.72 C87.27 125.89, 149.8 54.43, 190.58 9.99 M22.87 199.96 C84.22 132.61, 144.89 63.29, 190.62 8.83 M27.42 204.51 C77.95 143.51, 130.64 82.28, 192.94 10.26 M26.93 203.04 C91.66 130.3, 155.44 58.04, 194.47 10.66 M29.33 204.83 C93.42 126.96, 160.16 51.09, 199.28 10.76 M29.21 205.56 C75.47 153.02, 121.72 100.81, 197.9 11.56 M33.03 208.31 C75.84 162.15, 118.39 113.04, 202.16 13.96 M31.72 207.84 C80.72 151.44, 129.41 94.97, 202.95 12.54 M35.51 210.71 C94.26 144.58, 152.19 77.2, 206.87 14.07 M34.67 211.1 C95.21 141.74, 156 72.25, 206.13 14.26 M37.78 213.91 C93.73 149.45, 147.04 86.79, 211.56 16.86 M37.53 213.95 C76.04 172.89, 113.17 129.42, 210.99 16.15 M41.57 217.78 C108.36 141.23, 174.46 64.97, 213.94 18.6 M40.79 217.27 C88.46 163.77, 135.89 109.62, 213.32 17.22 M43.96 219.73 C89.91 169.43, 133 119.8, 217.09 19.36 M43.25 219.86 C96.4 157.71, 151.79 95.81, 218.45 18.25 M46.39 222.08 C101.24 161.32, 156.98 93.71, 223.26 21.25 M46.38 222.88 C109.8 149.63, 173.44 76.64, 221.75 21.03 M49.74 225.61 C116.2 147.78, 186.82 67.88, 227.15 22.45 M48.92 225.94 C91.45 176.55, 133.27 128.22, 225.88 22.65 M50.65 227.51 C102.16 173.42, 152.9 114.72, 228.06 25.82 M51.28 228.39 C116.15 154.24, 180.25 80.26, 230.15 24.98 M55.77 229.51 C115.09 162.66, 174.08 93.79, 233.79 28.32 M55.1 230.48 C113.94 164.37, 171.67 98.06, 231.73 27.45 M57.7 232.23 C102.24 184.43, 145.04 135.18, 237.03 30.39 M59.72 232.64 C113.51 171.38, 166.91 108.93, 235.85 29.51 M63.7 234.77 C117.76 172.54, 171.23 112.22, 239.77 31.35 M62.24 234.48 C101.33 190.06, 140.87 145, 239.72 30.92 M66.15 237.13 C118.03 173.96, 172.28 113.14, 240.62 32.83 M65.71 237.32 C132.92 158.87, 200.24 80.13, 242.75 34.56 M69.35 238.87 C133.25 163.88, 198.85 86.91, 245.34 35.69 M69.37 239.14 C109.5 194.15, 148.05 148.56, 244.82 37.29 M73.65 240.71 C109.62 198.18, 147.97 155.82, 248.46 40.24 M73.36 241.05 C130.43 177.21, 185.83 112.44, 249.25 38.88 M77.17 243.15 C112.03 199.03, 148.27 158.02, 253.19 39.91 M76.73 242.17 C140.04 170.07, 204.54 95.97, 251.58 40.67 M78.86 244.29 C124.7 195.03, 166.67 144.34, 255.63 43.68 M80.78 245.46 C148.45 165.08, 216.62 87.67, 254.59 43.74 M83.31 248.58 C152.83 169.24, 220.33 91.07, 259.14 46.99 M83.78 246.96 C139.4 183.08, 194.65 118.24, 259.33 45.17 M88.15 248.18 C142.63 187.65, 196.53 122.18, 262.01 48.29 M87.56 248.89 C152.92 172.66, 220.54 96.24, 261.67 49.29 M91.88 251.33 C132.27 203.53, 176.1 154.9, 264.5 51.77 M90.53 251.05 C140.85 192.45, 191.29 132.34, 264.27 51.64 M93.24 254.93 C142.93 196.37, 189.63 141.75, 267.3 54.03 M93.66 253.64 C139.98 200.49, 184.55 146.96, 266.6 55 M100 255.17 C134.34 214.26, 168.17 172.92, 267.61 58.43 M99.12 254.6 C157.58 185.13, 217.04 117.43, 269.18 58.61 M101.86 254.27 C138.2 212.55, 175.78 169.2, 271.68 63.33 M102.52 254.92 C153.73 199.66, 202.84 143.29, 271.15 61.67 M106.89 255.71 C154.91 199.89, 205.53 143.59, 273.02 65.4 M108.02 256.45 C150.69 204.14, 195.26 152.93, 272.75 65.27 M112.59 256.01 C171.61 192.07, 230.37 123.08, 276.51 68.57 M112.36 257.01 C162.25 199.45, 213.91 141.44, 274.75 69.49 M115.05 258.69 C151.96 217.22, 187.61 177.48, 279.06 71.56 M115.26 258.93 C162.08 206.66, 206.24 154.65, 277.09 72.24 M120.25 257.32 C179.05 193.82, 232.5 128.2, 280.91 77.41 M121.05 258.83 C161.71 210.66, 203.76 163.49, 279.91 76.69 M124.05 260.07 C164.61 215.09, 204.39 169.13, 282.45 80.68 M124.6 259.96 C182.29 195.84, 236.22 133.97, 282.13 80.28 M129.96 262.26 C190.58 189.58, 253.91 120.51, 285.92 83.23 M129.36 261.44 C171.91 215.17, 212.94 167.16, 284.19 83.24 M135.54 261.02 C191.38 197.25, 251.64 129.85, 285.99 87.86 M134.89 262.46 C178.57 211.55, 223.04 159.42, 287.33 85.66 M138.32 263.4 C185.73 205.74, 232.11 153.13, 287.6 91.47 M139.66 261.99 C189.53 203.51, 239.3 146.44, 287.25 91.86 M144.52 262.32 C196.72 202.46, 249.91 142.06, 290.48 97.64 M145.65 261.11 C180.89 218.23, 217.81 177.42, 289.2 96.03 M149.87 262.76 C189.27 213.79, 229.19 166.85, 290.73 102.58 M151.38 260.62 C189.15 216.51, 227.64 170.95, 290.46 101.56 M157.81 261.11 C189.32 222.16, 220.11 187.22, 289.75 107.47 M157.5 260.22 C182.54 228.15, 211.24 195.75, 291.09 106.2 M163.41 258.42 C201.94 212.2, 242.9 167.73, 293.78 109.8 M163.15 259.98 C212.98 201.78, 261.87 143.16, 292.48 110.03 M166.94 258.97 C200.28 223.94, 232.27 186.26, 292.02 114.77 M168.68 258.96 C206.76 217.6, 241.86 174.08, 292.69 116.5 M172.76 257.39 C209.89 217.31, 246.14 171.99, 292.96 123.19 M173.51 258.78 C214.32 212.9, 255.26 165.26, 293.65 120.53 M180.61 259.91 C215.36 220.07, 250.55 179.6, 292.04 128.74 M179.16 258.28 C210.88 223.99, 240.7 188.38, 294.29 126.52 M187.83 259.01 C214.73 223.57, 243.73 191.94, 295.04 136.09 M185.72 256.33 C219.9 217.84, 253.79 180.05, 293.33 133.64 M191.67 260.97 C224 220.01, 254.22 185.54, 290.81 140.55 M189.36 258.57 C212.64 233.21, 236.6 207.1, 292.35 141.63 M196.46 257.38 C226.09 224.38, 254.81 190.4, 288.79 147.81 M197.86 255.15 C221.32 229, 244.56 200.65, 290.52 149.76 M206.81 252.3 C230.95 223.65, 252.46 200.31, 289.17 157.11 M207.08 251.1 C233.61 220.41, 260.2 190.16, 289.1 156.26 M214.18 246.53 C240.31 218.82, 267.7 192.48, 287.72 165.16 M215.79 248.85 C230.64 228.66, 247.87 210.06, 287.52 163.43 M223.06 244.63 C246.62 217.3, 268.55 191.61, 287.81 170.58 M223.12 244.41 C238.07 227.59, 252.11 210.81, 287.7 170.29 M234.45 240.54 C248.32 224.15, 261.53 209.1, 279.57 186.19 M232.37 239.27 C246.05 225.86, 257.2 211.52, 280.46 184.1" stroke="#b2f2bb" stroke-width="0.5" fill="none"></path><path d="M130.4 -0.09 C145.3 -3.45, 164.05 0.35, 179.63 3.73 C195.2 7.1, 210.6 13.02, 223.85 20.16 C237.1 27.31, 249.01 35.93, 259.14 46.6 C269.28 57.27, 279.05 70.96, 284.67 84.18 C290.29 97.41, 292.57 111.98, 292.85 125.95 C293.12 139.92, 290.83 154.36, 286.33 168.02 C281.83 181.67, 275.1 196.27, 265.86 207.88 C256.63 219.5, 244.03 229.59, 230.9 237.69 C217.77 245.78, 202.47 252.53, 187.07 256.45 C171.68 260.37, 154.52 262.11, 138.51 261.2 C122.51 260.29, 105.74 256.57, 91.05 250.99 C76.35 245.4, 62.34 236.91, 50.35 227.7 C38.37 218.49, 26.97 207.93, 19.13 195.74 C11.29 183.55, 6.26 168.51, 3.33 154.56 C0.39 140.6, -0.5 125.99, 1.5 112.02 C3.51 98.05, 8.37 83.18, 15.35 70.73 C22.33 58.29, 31.97 46.99, 43.39 37.33 C54.81 27.67, 68.72 18.75, 83.86 12.76 C99.01 6.76, 125.23 3.04, 134.25 1.34 C143.27 -0.36, 137.9 0.59, 137.99 2.57 M91.58 10.72 C104.66 3.88, 122.95 -0.4, 139.18 -1.09 C155.41 -1.78, 173.53 2.37, 188.97 6.59 C204.41 10.82, 218.87 16.17, 231.82 24.24 C244.76 32.32, 257.42 43.97, 266.62 55.04 C275.81 66.11, 282.54 77.55, 287 90.66 C291.46 103.77, 293.65 119.36, 293.38 133.7 C293.12 148.05, 291.19 163.54, 285.41 176.73 C279.63 189.92, 268.95 202.01, 258.69 212.84 C248.44 223.67, 237.15 234.49, 223.87 241.71 C210.58 248.94, 194.42 253.12, 178.98 256.18 C163.55 259.24, 147.05 261.35, 131.25 260.08 C115.44 258.8, 98.68 254.79, 84.16 248.53 C69.64 242.28, 55.39 232.82, 44.13 222.56 C32.87 212.31, 23.83 199.63, 16.6 187.02 C9.36 174.4, 2.87 160.55, 0.73 146.86 C-1.41 133.16, 0.39 118.72, 3.78 104.85 C7.18 90.97, 13.26 75.71, 21.09 63.62 C28.92 51.52, 38.93 41.13, 50.76 32.28 C62.58 23.42, 84.96 13.75, 92.03 10.49 C99.11 7.24, 92.35 11.12, 93.21 12.73" stroke="#1e1e1e" stroke-width="1" fill="none"></path></g><g transform="translate(65.44178216624186 135.0521978680763) rotate(0 86.569875226529 47.05537985186993)"><text x="0" y="0" font-family="Virgil, Segoe UI Emoji" font-size="25.096202587663864px" fill="#1e1e1e" text-anchor="start" style="white-space: pre;" direction="ltr" dominant-baseline="text-before-edge">192.168.0.1/24</text><text x="0" y="31.37025323457983" font-family="Virgil, Segoe UI Emoji" font-size="25.096202587663864px" fill="#1e1e1e" text-anchor="start" style="white-space: pre;" direction="ltr" dominant-baseline="text-before-edge"></text><text x="0" y="62.74050646915966" font-family="Virgil, Segoe UI Emoji" font-size="25.096202587663864px" fill="#1e1e1e" text-anchor="start" style="white-space: pre;" direction="ltr" dominant-baseline="text-before-edge"></text></g><g transform="translate(32.01398451967134 279.3197249034765) rotate(0 123.82773432144063 20.27967540344389)"><text x="0" y="0" font-family="Virgil, Segoe UI Emoji" font-size="16.22374032275506px" fill="#1e1e1e" text-anchor="start" style="white-space: pre;" direction="ltr" dominant-baseline="text-before-edge">The circle denotes 2^(32-24) </text><text x="0" y="20.279675403443825" font-family="Virgil, Segoe UI Emoji" font-size="16.22374032275506px" fill="#1e1e1e" text-anchor="start" style="white-space: pre;" direction="ltr" dominant-baseline="text-before-edge">    = 2^8 = 256 IP Address</text></g></svg>