<svg version="1.1" xmlns="http://www.w3.org/2000/svg" viewBox="0 0 2143.1967937240493 1103.4786594973284" width="6429.590381172147" height="3310.435978491985">
  <!-- svg-source:excalidraw -->
  
  <defs>
    <style class="style-fonts">
      @font-face {
        font-family: "Virgil";
        src: url("https://excalidraw.com/Virgil.woff2");
      }
      @font-face {
        font-family: "Cascadia";
        src: url("https://excalidraw.com/Cascadia.woff2");
      }
    </style>
    
  </defs>
  <rect x="0" y="0" width="2143.1967937240493" height="1103.4786594973284" fill="#ffffff"></rect><g stroke-linecap="round" transform="translate(1413.7829926801896 164.320791964592) rotate(0 331.5065264983697 434.2754695674439)"><path d="M0 0 C250.51 0, 501.01 0, 663.01 0 M0 0 C187.93 0, 375.86 0, 663.01 0 M663.01 0 C663.01 285.23, 663.01 570.45, 663.01 868.55 M663.01 0 C663.01 291.2, 663.01 582.39, 663.01 868.55 M663.01 868.55 C500.48 868.55, 337.94 868.55, 0 868.55 M663.01 868.55 C408.16 868.55, 153.3 868.55, 0 868.55 M0 868.55 C0 683.61, 0 498.67, 0 0 M0 868.55 C0 551.93, 0 235.31, 0 0" stroke="#1e1e1e" stroke-width="1" fill="none"></path></g><g stroke-linecap="round" transform="translate(407.39587764799865 10) rotate(0 862.9004580380254 541.7393297486642)"><path d="M0 0 C430.96 0, 861.92 0, 1725.8 0 M0 0 C419.77 0, 839.54 0, 1725.8 0 M1725.8 0 C1725.8 378.8, 1725.8 757.59, 1725.8 1083.48 M1725.8 0 C1725.8 315.17, 1725.8 630.34, 1725.8 1083.48 M1725.8 1083.48 C1154.31 1083.48, 582.81 1083.48, 0 1083.48 M1725.8 1083.48 C1164.32 1083.48, 602.85 1083.48, 0 1083.48 M0 1083.48 C0 754.71, 0 425.93, 0 0 M0 1083.48 C0 781.95, 0 480.42, 0 0" stroke="#1e1e1e" stroke-width="1" fill="none"></path></g><g transform="translate(423.9240802695607 22.06890402620229) rotate(0 176.26071166992188 17.5)"><text x="0" y="0" font-family="Virgil, Segoe UI Emoji" font-size="28px" fill="#1971c2" text-anchor="start" style="white-space: pre;" direction="ltr" dominant-baseline="text-before-edge">Region - Ohio (us-east-2)</text></g><g stroke-linecap="round" transform="translate(526.8675555732888 153.66184564807554) rotate(0 331.50652649836957 434.2754695674439)"><path d="M0 0 C156.33 0, 312.66 0, 663.01 0 M0 0 C152.14 0, 304.27 0, 663.01 0 M663.01 0 C663.01 291.01, 663.01 582.02, 663.01 868.55 M663.01 0 C663.01 229.42, 663.01 458.83, 663.01 868.55 M663.01 868.55 C506.06 868.55, 349.1 868.55, 0 868.55 M663.01 868.55 C451.94 868.55, 240.88 868.55, 0 868.55 M0 868.55 C0 684.71, 0 500.86, 0 0 M0 868.55 C0 586.64, 0 304.72, 0 0" stroke="#1e1e1e" stroke-width="1" fill="none"></path></g><g transform="translate(721.503016871227 109.13116580632595) rotate(0 139.23056030273438 17.5)"><text x="0" y="0" font-family="Virgil, Segoe UI Emoji" font-size="28px" fill="#1971c2" text-anchor="start" style="white-space: pre;" direction="ltr" dominant-baseline="text-before-edge">Availability zone - A</text></g><g stroke-linecap="round" transform="translate(603.3781239389425 327.6312138435187) rotate(0 279.7184491711983 132.39875540588855)"><path d="M0 0 C129.36 0, 258.72 0, 559.44 0 M559.44 0 C559.44 75.71, 559.44 151.41, 559.44 264.8 M559.44 264.8 C422.27 264.8, 285.09 264.8, 0 264.8 M0 264.8 C0 199.31, 0 133.83, 0 0" stroke="#1e1e1e" stroke-width="1.5" fill="none" stroke-dasharray="8 9"></path></g><g transform="translate(612.0879080099431 288.01578641991364) rotate(0 178.61273193359375 17.5)"><text x="0" y="0" font-family="Virgil, Segoe UI Emoji" font-size="28px" fill="#1971c2" text-anchor="start" style="white-space: pre;" direction="ltr" dominant-baseline="text-before-edge">Public Subnet - 10.1.1.0/24</text></g><g stroke-linecap="round" transform="translate(460.66311566384786 197.0200160415534) rotate(0 819.2979425160413 397.7022397960782)"><path d="M0 0 C542.82 0, 1085.64 0, 1638.6 0 M0 0 C523.62 0, 1047.23 0, 1638.6 0 M1638.6 0 C1638.6 310.14, 1638.6 620.28, 1638.6 795.4 M1638.6 0 C1638.6 195.74, 1638.6 391.49, 1638.6 795.4 M1638.6 795.4 C1041.33 795.4, 444.07 795.4, 0 795.4 M1638.6 795.4 C1121.83 795.4, 605.07 795.4, 0 795.4 M0 795.4 C0 624.45, 0 453.5, 0 0 M0 795.4 C0 599.9, 0 404.39, 0 0" stroke="#2f9e44" stroke-width="2" fill="none"></path></g><g transform="translate(466.3357389386182 218.92066801428518) rotate(0 100.25440979003906 17.5)"><text x="0" y="0" font-family="Virgil, Segoe UI Emoji" font-size="28px" fill="#1971c2" text-anchor="start" style="white-space: pre;" direction="ltr" dominant-baseline="text-before-edge">VPC 10.1.0.0/16</text></g><g stroke-linecap="round" transform="translate(881.2072616700308 367.3722036738236) rotate(0 104.9985923667573 92.22283279021758)"><path d="M0 0 C76.06 0, 152.11 0, 210 0 M0 0 C53.01 0, 106.02 0, 210 0 M210 0 C210 56.14, 210 112.28, 210 184.45 M210 0 C210 68.7, 210 137.39, 210 184.45 M210 184.45 C157.07 184.45, 104.14 184.45, 0 184.45 M210 184.45 C126.17 184.45, 42.35 184.45, 0 184.45 M0 184.45 C0 124.17, 0 63.9, 0 0 M0 184.45 C0 138, 0 91.55, 0 0" stroke="#1e1e1e" stroke-width="2" fill="none"></path></g><g transform="translate(912.579430848762 397.2172157993464) rotate(0 78.37232208251953 52.5)"><text x="0" y="0" font-family="Virgil, Segoe UI Emoji" font-size="28px" fill="#1e1e1e" text-anchor="start" style="white-space: pre;" direction="ltr" dominant-baseline="text-before-edge">Frontend </text><text x="0" y="35" font-family="Virgil, Segoe UI Emoji" font-size="28px" fill="#1e1e1e" text-anchor="start" style="white-space: pre;" direction="ltr" dominant-baseline="text-before-edge">Application </text><text x="0" y="70" font-family="Virgil, Segoe UI Emoji" font-size="28px" fill="#1e1e1e" text-anchor="start" style="white-space: pre;" direction="ltr" dominant-baseline="text-before-edge">Replica 1</text></g><g transform="translate(892.6565762632143 514.9304814605202) rotate(0 91.09837341308594 17.5)"><text x="0" y="0" font-family="Virgil, Segoe UI Emoji" font-size="28px" fill="#1e1e1e" text-anchor="start" style="white-space: pre;" direction="ltr" dominant-baseline="text-before-edge">EC2 instance</text></g><g stroke-linecap="round" transform="translate(608.4439220497222 705.4146652399559) rotate(0 279.7184491711983 132.39875540588855)"><path d="M0 0 C131.78 0, 263.57 0, 559.44 0 M559.44 0 C559.44 105.06, 559.44 210.12, 559.44 264.8 M559.44 264.8 C336.75 264.8, 114.06 264.8, 0 264.8 M0 264.8 C0 205.71, 0 146.62, 0 0" stroke="#1e1e1e" stroke-width="1.5" fill="none" stroke-dasharray="8 9"></path></g><g stroke-linecap="round" transform="translate(1106.6198459497482 177.25646830460028) rotate(0 165.5 35.5)"><path d="M0 0 L331 0 L331 71 L0 71" stroke="none" stroke-width="0" fill="#b2f2bb"></path><path d="M0 0 C99.78 0, 199.57 0, 331 0 M0 0 C79.51 0, 159.03 0, 331 0 M331 0 C331 16.37, 331 32.75, 331 71 M331 0 C331 27.76, 331 55.53, 331 71 M331 71 C239.14 71, 147.27 71, 0 71 M331 71 C240.79 71, 150.58 71, 0 71 M0 71 C0 50.75, 0 30.49, 0 0 M0 71 C0 45.87, 0 20.73, 0 0" stroke="#1e1e1e" stroke-width="2" fill="none"></path></g><g transform="translate(1146.875903689006 195.25646830460028) rotate(0 125.24394226074219 17.5)"><text x="125.24394226074219" y="0" font-family="Virgil, Segoe UI Emoji" font-size="28px" fill="#1e1e1e" text-anchor="middle" style="white-space: pre;" direction="ltr" dominant-baseline="text-before-edge">Internet Gateway</text></g><g transform="translate(617.153706120723 665.7992378163526) rotate(0 196.82681274414057 17.5)"><text x="0" y="0" font-family="Virgil, Segoe UI Emoji" font-size="28px" fill="#1971c2" text-anchor="start" style="white-space: pre;" direction="ltr" dominant-baseline="text-before-edge">Private Subnet - 10.1.3.0/24</text></g><g stroke-linecap="round" transform="translate(886.273059780811 745.1556550702644) rotate(0 104.9985923667573 92.22283279021758)"><path d="M0 0 C77.8 0, 155.61 0, 210 0 M0 0 C56.41 0, 112.82 0, 210 0 M210 0 C210 39.51, 210 79.02, 210 184.45 M210 0 C210 72.99, 210 145.98, 210 184.45 M210 184.45 C137.93 184.45, 65.86 184.45, 0 184.45 M210 184.45 C136.47 184.45, 62.95 184.45, 0 184.45 M0 184.45 C0 120.38, 0 56.32, 0 0 M0 184.45 C0 128.34, 0 72.24, 0 0" stroke="#1e1e1e" stroke-width="2" fill="none"></path></g><g transform="translate(898.7782943936398 820.7019328394617) rotate(0 96.1664047241211 35)"><text x="0" y="0" font-family="Virgil, Segoe UI Emoji" font-size="28px" fill="#1e1e1e" text-anchor="start" style="white-space: pre;" direction="ltr" dominant-baseline="text-before-edge">RDS Instance</text><text x="0" y="35" font-family="Virgil, Segoe UI Emoji" font-size="28px" fill="#1e1e1e" text-anchor="start" style="white-space: pre;" direction="ltr" dominant-baseline="text-before-edge">Replica 1</text></g><g transform="translate(1608.9507772938168 119.79011212284422) rotate(0 139.23056030273438 17.5)"><text x="0" y="0" font-family="Virgil, Segoe UI Emoji" font-size="28px" fill="#1971c2" text-anchor="start" style="white-space: pre;" direction="ltr" dominant-baseline="text-before-edge">Availability zone - A</text></g><g stroke-linecap="round" transform="translate(1490.8258843615326 338.290160160037) rotate(0 279.71844917119836 132.39875540588855)"><path d="M0 0 C174.94 0, 349.89 0, 559.44 0 M559.44 0 C559.44 57.56, 559.44 115.12, 559.44 264.8 M559.44 264.8 C429.66 264.8, 299.88 264.8, 0 264.8 M0 264.8 C0 195.28, 0 125.77, 0 0" stroke="#1e1e1e" stroke-width="1.5" fill="none" stroke-dasharray="8 9"></path></g><g transform="translate(1499.535668432533 298.6747327364337) rotate(0 184.35276794433582 17.5)"><text x="0" y="0" font-family="Virgil, Segoe UI Emoji" font-size="28px" fill="#1971c2" text-anchor="start" style="white-space: pre;" direction="ltr" dominant-baseline="text-before-edge">Public Subnet - 10.1.3.0/24</text></g><g stroke-linecap="round" transform="translate(1768.655022092621 378.0311499903419) rotate(0 104.9985923667573 92.22283279021758)"><path d="M0 0 C71.95 0, 143.89 0, 210 0 M0 0 C80.54 0, 161.08 0, 210 0 M210 0 C210 71.75, 210 143.51, 210 184.45 M210 0 C210 65.76, 210 131.51, 210 184.45 M210 184.45 C156.84 184.45, 103.68 184.45, 0 184.45 M210 184.45 C144.81 184.45, 79.61 184.45, 0 184.45 M0 184.45 C0 140.73, 0 97.02, 0 0 M0 184.45 C0 113.09, 0 41.74, 0 0" stroke="#1e1e1e" stroke-width="2" fill="none"></path></g><g transform="translate(1800.0271912713515 408.40848543155334) rotate(0 71.3722915649414 52.5)"><text x="0" y="0" font-family="Virgil, Segoe UI Emoji" font-size="28px" fill="#1e1e1e" text-anchor="start" style="white-space: pre;" direction="ltr" dominant-baseline="text-before-edge">Frontend </text><text x="0" y="35" font-family="Virgil, Segoe UI Emoji" font-size="28px" fill="#1e1e1e" text-anchor="start" style="white-space: pre;" direction="ltr" dominant-baseline="text-before-edge">Application</text><text x="0" y="70" font-family="Virgil, Segoe UI Emoji" font-size="28px" fill="#1e1e1e" text-anchor="start" style="white-space: pre;" direction="ltr" dominant-baseline="text-before-edge">Replica 2</text></g><g transform="translate(1780.104336685804 525.5894277770403) rotate(0 91.09837341308594 17.5)"><text x="0" y="0" font-family="Virgil, Segoe UI Emoji" font-size="28px" fill="#1e1e1e" text-anchor="start" style="white-space: pre;" direction="ltr" dominant-baseline="text-before-edge">EC2 instance</text></g><g stroke-linecap="round" transform="translate(1495.8916824723124 716.0736115564741) rotate(0 279.71844917119836 132.39875540588855)"><path d="M0 0 C176.98 0, 353.96 0, 559.44 0 M559.44 0 C559.44 83.4, 559.44 166.79, 559.44 264.8 M559.44 264.8 C342.22 264.8, 125 264.8, 0 264.8 M0 264.8 C0 204.27, 0 143.73, 0 0" stroke="#1e1e1e" stroke-width="1.5" fill="none" stroke-dasharray="8 9"></path></g><g transform="translate(1504.601466543313 676.4581841328709) rotate(0 196.2528076171876 17.5)"><text x="0" y="0" font-family="Virgil, Segoe UI Emoji" font-size="28px" fill="#1971c2" text-anchor="start" style="white-space: pre;" direction="ltr" dominant-baseline="text-before-edge">Private Subnet - 10.1.4.0/24</text></g><g stroke-linecap="round" transform="translate(1773.7208202034008 755.8146013867827) rotate(0 104.9985923667573 92.22283279021758)"><path d="M0 0 C83.56 0, 167.11 0, 210 0 M0 0 C57.18 0, 114.37 0, 210 0 M210 0 C210 52.4, 210 104.8, 210 184.45 M210 0 C210 60.47, 210 120.94, 210 184.45 M210 184.45 C130.86 184.45, 51.73 184.45, 0 184.45 M210 184.45 C159.32 184.45, 108.64 184.45, 0 184.45 M0 184.45 C0 118.82, 0 53.19, 0 0 M0 184.45 C0 146.11, 0 107.78, 0 0" stroke="#1e1e1e" stroke-width="2" fill="none"></path></g><g transform="translate(1786.7671047436515 831.9019290834021) rotate(0 96.1664047241211 35)"><text x="0" y="0" font-family="Virgil, Segoe UI Emoji" font-size="28px" fill="#1e1e1e" text-anchor="start" style="white-space: pre;" direction="ltr" dominant-baseline="text-before-edge">RDS Instance</text><text x="0" y="35" font-family="Virgil, Segoe UI Emoji" font-size="28px" fill="#1e1e1e" text-anchor="start" style="white-space: pre;" direction="ltr" dominant-baseline="text-before-edge">Replica 2</text></g><g stroke-linecap="round" transform="translate(14.500852442647897 163.55733404398052) rotate(0 156.1146404485433 54.38235662554507)"><path d="M0 0 C73.26 0, 146.52 0, 312.23 0 M0 0 C100.69 0, 201.38 0, 312.23 0 M312.23 0 C312.23 34.65, 312.23 69.3, 312.23 108.76 M312.23 0 C312.23 25.36, 312.23 50.72, 312.23 108.76 M312.23 108.76 C236.01 108.76, 159.79 108.76, 0 108.76 M312.23 108.76 C189.08 108.76, 65.93 108.76, 0 108.76 M0 108.76 C0 79.75, 0 50.73, 0 0 M0 108.76 C0 80.15, 0 51.54, 0 0" stroke="#1e1e1e" stroke-width="1" fill="none"></path></g><g stroke-linecap="round"><g transform="translate(13.251000272848046 216.18841964874628) rotate(0 157.24699446031002 -0.3042295527029637)"><path d="M0 0 C74.35 -0.14, 148.69 -0.29, 314.49 -0.61 M0 0 C114.11 -0.22, 228.23 -0.44, 314.49 -0.61" stroke="#1e1e1e" stroke-width="1" fill="none"></path></g></g><mask></mask><g transform="translate(43.98921680368289 118.29121991968532) rotate(0 120.13450622558594 17.5)"><text x="0" y="0" font-family="Virgil, Segoe UI Emoji" font-size="28px" fill="#1e1e1e" text-anchor="start" style="white-space: pre;" direction="ltr" dominant-baseline="text-before-edge">Main Route table</text></g><g stroke-linecap="round"><g transform="translate(195.25128271730694 162.5524747790896) rotate(0 0.4314716578509774 54.04244750870748)"><path d="M0 0 C0.18 22.83, 0.36 45.65, 0.86 108.08 M0 0 C0.23 29.19, 0.47 58.38, 0.86 108.08" stroke="#1e1e1e" stroke-width="1" fill="none"></path></g></g><mask></mask><g transform="translate(25.49926320393945 165.8540966757173) rotate(0 78.30231475830078 17.5)"><text x="0" y="0" font-family="Virgil, Segoe UI Emoji" font-size="28px" fill="#1e1e1e" text-anchor="start" style="white-space: pre;" direction="ltr" dominant-baseline="text-before-edge">Destination</text></g><g transform="translate(207.00602515582625 165.3459029395417) rotate(0 49.19621276855469 17.5)"><text x="0" y="0" font-family="Virgil, Segoe UI Emoji" font-size="28px" fill="#1e1e1e" text-anchor="start" style="white-space: pre;" direction="ltr" dominant-baseline="text-before-edge">Target</text></g><g transform="translate(26.681602743350936 224.19321954950829) rotate(0 67.74627685546875 17.5)"><text x="0" y="0" font-family="Virgil, Segoe UI Emoji" font-size="28px" fill="#1e1e1e" text-anchor="start" style="white-space: pre;" direction="ltr" dominant-baseline="text-before-edge">10.1.0.0/16</text></g><g transform="translate(217.38406588208943 220.66797723101627) rotate(0 31.486129760742188 17.5)"><text x="0" y="0" font-family="Virgil, Segoe UI Emoji" font-size="28px" fill="#1e1e1e" text-anchor="start" style="white-space: pre;" direction="ltr" dominant-baseline="text-before-edge">local</text></g><g stroke-linecap="round"><g transform="translate(328.65431052648637 172.81043909051186) rotate(0 68.08547340097016 15.102767718970426)"><path d="M0.67 1.73 C40.66 7.88, 80.9 18.39, 134.85 27.93 M0.74 0.75 C44.55 9.05, 90.56 18.68, 135.5 29.46" stroke="#1e1e1e" stroke-width="1" fill="none"></path></g><g transform="translate(328.65431052648637 172.81043909051186) rotate(0 68.08547340097016 15.102767718970426)"><path d="M106.39 34.85 C114.95 30.4, 123.89 31.27, 135.79 28.75 M106.47 33.86 C114.91 32.26, 125.57 30.99, 136.44 30.27" stroke="#1e1e1e" stroke-width="1" fill="none"></path></g><g transform="translate(328.65431052648637 172.81043909051186) rotate(0 68.08547340097016 15.102767718970426)"><path d="M111.01 14.85 C118.27 16.34, 125.82 23.18, 135.79 28.75 M111.08 13.87 C117.98 19.05, 127.09 24.53, 136.44 30.27" stroke="#1e1e1e" stroke-width="1" fill="none"></path></g></g><mask></mask><g stroke-linecap="round" transform="translate(10 641.6474888377797) rotate(0 156.1146404485433 88.03405915856456)"><path d="M0 0 C87.36 0, 174.73 0, 312.23 0 M0 0 C119.39 0, 238.78 0, 312.23 0 M312.23 0 C312.23 60.9, 312.23 121.8, 312.23 176.07 M312.23 0 C312.23 45.71, 312.23 91.42, 312.23 176.07 M312.23 176.07 C238.65 176.07, 165.06 176.07, 0 176.07 M312.23 176.07 C210.17 176.07, 108.11 176.07, 0 176.07 M0 176.07 C0 115.73, 0 55.39, 0 0 M0 176.07 C0 126.51, 0 76.95, 0 0" stroke="#1e1e1e" stroke-width="1" fill="none"></path></g><g stroke-linecap="round"><g transform="translate(10.750147830200149 723.0089290087708) rotate(0 157.24699446031002 -0.3042295527029637)"><path d="M0 0 C116.67 -0.23, 233.35 -0.45, 314.49 -0.61 M0 0 C124.17 -0.24, 248.34 -0.48, 314.49 -0.61" stroke="#1e1e1e" stroke-width="1" fill="none"></path></g></g><mask></mask><g transform="translate(32.393631768288856 593.014081651947) rotate(0 136.09457397460938 17.5)"><text x="0" y="0" font-family="Virgil, Segoe UI Emoji" font-size="28px" fill="#1e1e1e" text-anchor="start" style="white-space: pre;" direction="ltr" dominant-baseline="text-before-edge">Custom route table</text></g><g stroke-linecap="round"><g transform="translate(190.96686763736955 641.8678517890712) rotate(0 0.673735377496655 87.70971123696836)"><path d="M0 0 C0.31 40.86, 0.63 81.73, 1.35 175.42 M0 0 C0.32 41.57, 0.64 83.13, 1.35 175.42" stroke="#1e1e1e" stroke-width="1" fill="none"></path></g></g><mask></mask><g transform="translate(20.998410761291552 663.1776472290567) rotate(0 78.30231475830078 17.5)"><text x="0" y="0" font-family="Virgil, Segoe UI Emoji" font-size="28px" fill="#1e1e1e" text-anchor="start" style="white-space: pre;" direction="ltr" dominant-baseline="text-before-edge">Destination</text></g><g transform="translate(202.50517271317824 662.6694534928811) rotate(0 49.19621276855469 17.5)"><text x="0" y="0" font-family="Virgil, Segoe UI Emoji" font-size="28px" fill="#1e1e1e" text-anchor="start" style="white-space: pre;" direction="ltr" dominant-baseline="text-before-edge">Target</text></g><g transform="translate(24.944065819296156 726.2960072337355) rotate(0 67.74627685546875 17.5)"><text x="0" y="0" font-family="Virgil, Segoe UI Emoji" font-size="28px" fill="#1e1e1e" text-anchor="start" style="white-space: pre;" direction="ltr" dominant-baseline="text-before-edge">10.1.0.0/16</text></g><g transform="translate(215.64652895803454 727.7707649152453) rotate(0 31.486129760742188 17.5)"><text x="0" y="0" font-family="Virgil, Segoe UI Emoji" font-size="28px" fill="#1e1e1e" text-anchor="start" style="white-space: pre;" direction="ltr" dominant-baseline="text-before-edge">local</text></g><g stroke-linecap="round"><g transform="translate(11.39713283678634 769.8915188316569) rotate(0 157.24699446031002 -0.3042295527029637)"><path d="M0 0 C78.11 -0.15, 156.22 -0.3, 314.49 -0.61 M0 0 C116.9 -0.23, 233.79 -0.45, 314.49 -0.61" stroke="#1e1e1e" stroke-width="1" fill="none"></path></g></g><mask></mask><g transform="translate(22.148338653041492 779.2775280101669) rotate(0 66.66828155517578 17.5)"><text x="0" y="0" font-family="Virgil, Segoe UI Emoji" font-size="28px" fill="#1e1e1e" text-anchor="start" style="white-space: pre;" direction="ltr" dominant-baseline="text-before-edge">0.0.0.0/0</text></g><g transform="translate(213.53019844602773 775.752285691673) rotate(0 35.39214324951172 17.5)"><text x="0" y="0" font-family="Virgil, Segoe UI Emoji" font-size="28px" fill="#1e1e1e" text-anchor="start" style="white-space: pre;" direction="ltr" dominant-baseline="text-before-edge">igw-id</text></g><g stroke-linecap="round"><g transform="translate(328.3252335138219 639.3415615655304) rotate(0 136.93153940180372 -85.97106886539041)"><path d="M-0.33 -0.28 C54.54 -33.34, 111.66 -70.7, 274.2 -172.45 M-0.26 0.51 C59.18 -37.73, 118.52 -75.72, 273.31 -171.5" stroke="#1e1e1e" stroke-width="1" fill="none"></path></g><g transform="translate(328.3252335138219 639.3415615655304) rotate(0 136.93153940180372 -85.97106886539041)"><path d="M254.3 -148.31 C256.83 -151.39, 262.24 -159.33, 273.7 -171.91 M254.4 -147.17 C258.9 -152.47, 262.91 -158.57, 272.42 -170.53" stroke="#1e1e1e" stroke-width="1" fill="none"></path></g><g transform="translate(328.3252335138219 639.3415615655304) rotate(0 136.93153940180372 -85.97106886539041)"><path d="M243.47 -165.74 C248.26 -165.2, 255.88 -169.58, 273.7 -171.91 M243.57 -164.6 C250.46 -166.17, 256.81 -168.5, 272.42 -170.53" stroke="#1e1e1e" stroke-width="1" fill="none"></path></g></g><mask></mask><g stroke-linecap="round"><g transform="translate(326.16177096502827 639.9803174884764) rotate(0 578.45883860273 -25.554211077298532)"><path d="M-0.58 0.55 C261.67 -16.38, 523.31 -27.7, 1156.77 -51.47 M-0.36 -0.11 C351.72 -19.41, 703.41 -35.36, 1157.5 -51.65" stroke="#1e1e1e" stroke-width="1" fill="none"></path></g><g transform="translate(326.16177096502827 639.9803174884764) rotate(0 578.45883860273 -25.554211077298532)"><path d="M1128.27 -38.96 C1136.72 -44.61, 1144 -46.43, 1155.56 -51.62 M1128.83 -40.59 C1138.32 -43.1, 1146.54 -47.31, 1157.39 -52.08" stroke="#1e1e1e" stroke-width="1" fill="none"></path></g><g transform="translate(326.16177096502827 639.9803174884764) rotate(0 578.45883860273 -25.554211077298532)"><path d="M1127.48 -59.47 C1135.94 -60.5, 1143.39 -57.69, 1155.56 -51.62 M1128.05 -61.1 C1137.93 -57.38, 1146.38 -55.36, 1157.39 -52.08" stroke="#1e1e1e" stroke-width="1" fill="none"></path></g></g><mask></mask><g stroke-linecap="round" transform="translate(636.2274923940637 750.9082196294057) rotate(0 104.9985923667573 92.22283279021758)"><path d="M0 0 C49.78 0, 99.57 0, 210 0 M0 0 C78.64 0, 157.28 0, 210 0 M210 0 C210 52.5, 210 105, 210 184.45 M210 0 C210 65.97, 210 131.94, 210 184.45 M210 184.45 C156.93 184.45, 103.87 184.45, 0 184.45 M210 184.45 C154.42 184.45, 98.85 184.45, 0 184.45 M0 184.45 C0 118.07, 0 51.69, 0 0 M0 184.45 C0 129.2, 0 73.95, 0 0" stroke="#1e1e1e" stroke-width="2" fill="none"></path></g><g transform="translate(648.7327270068932 826.4544973985994) rotate(0 85.51235961914062 35)"><text x="0" y="0" font-family="Virgil, Segoe UI Emoji" font-size="28px" fill="#1e1e1e" text-anchor="start" style="white-space: pre;" direction="ltr" dominant-baseline="text-before-edge">Backend App</text><text x="0" y="35" font-family="Virgil, Segoe UI Emoji" font-size="28px" fill="#1e1e1e" text-anchor="start" style="white-space: pre;" direction="ltr" dominant-baseline="text-before-edge">Replica 1</text></g><g stroke-linecap="round" transform="translate(1522.2274923940636 758.9082196294021) rotate(0 104.9985923667573 92.22283279021758)"><path d="M0 0 C63.18 0, 126.36 0, 210 0 M0 0 C68.34 0, 136.68 0, 210 0 M210 0 C210 73.3, 210 146.6, 210 184.45 M210 0 C210 38.71, 210 77.42, 210 184.45 M210 184.45 C145.54 184.45, 81.08 184.45, 0 184.45 M210 184.45 C163.37 184.45, 116.75 184.45, 0 184.45 M0 184.45 C0 120.5, 0 56.56, 0 0 M0 184.45 C0 134.25, 0 84.05, 0 0" stroke="#1e1e1e" stroke-width="2" fill="none"></path></g><g transform="translate(1534.7327270068931 834.4544973985958) rotate(0 85.51235961914062 35)"><text x="0" y="0" font-family="Virgil, Segoe UI Emoji" font-size="28px" fill="#1e1e1e" text-anchor="start" style="white-space: pre;" direction="ltr" dominant-baseline="text-before-edge">Backend App</text><text x="0" y="35" font-family="Virgil, Segoe UI Emoji" font-size="28px" fill="#1e1e1e" text-anchor="start" style="white-space: pre;" direction="ltr" dominant-baseline="text-before-edge">Replica 2</text></g></svg>